<svg width="761" height="418" viewBox="0 0 761 418" fill="none" xmlns="http://www.w3.org/2000/svg">
<circle cx="361" cy="44" r="44" fill="#E3E2DF"/>
<path d="M426 44V204H386V44H426Z" fill="#E3E2DF"/>
<path d="M734 95V225H674L682 160L674 95H734Z" fill="#7B1240"/>
<path d="M703.598 163.762C701.905 163.762 700.733 163.534 700.082 163.078C699.464 162.622 699.154 161.906 699.154 160.93V124.846C699.154 123.902 699.577 123.202 700.424 122.746C701.27 122.258 702.589 122.014 704.379 122.014H708.09C709.783 122.014 711.068 122.242 711.947 122.697C712.859 123.12 713.314 123.723 713.314 124.504L711.605 138.908C711.312 141.447 710.938 144.556 710.482 148.234C710.059 151.88 709.555 156.112 708.969 160.93C708.839 161.939 708.48 162.671 707.895 163.127C707.341 163.55 706.234 163.762 704.574 163.762H703.598ZM702.67 183.146C699.154 183.146 697.396 182.235 697.396 180.412V172.404C697.396 170.549 699.154 169.621 702.67 169.621H705.404C708.887 169.621 710.629 170.549 710.629 172.404V180.412C710.629 182.235 708.887 183.146 705.404 183.146H702.67Z" fill="white"/>
<circle cx="652" cy="197" r="37" fill="#E3E2DF" stroke="#7B1240" stroke-width="6"/>
<path d="M101 280L166 266L212 209L305 251L212 309H112L101 280Z" fill="#E3E2DF"/>
<path d="M2 277H262V396H2V277Z" fill="#7B1240"/>
<path d="M66.8945 343C66.6536 343 66.4779 342.945 66.3672 342.834C66.2565 342.723 66.2012 342.548 66.2012 342.307V331.535C66.2012 331.294 66.2565 331.122 66.3672 331.018C66.4779 330.907 66.6536 330.852 66.8945 330.852H70.7812C71.9727 330.852 72.9818 331.086 73.8086 331.555C74.6419 332.017 75.2702 332.701 75.6934 333.605C76.123 334.51 76.3379 335.614 76.3379 336.916C76.3379 338.225 76.123 339.331 75.6934 340.236C75.2702 341.141 74.6419 341.828 73.8086 342.297C72.9818 342.766 71.9727 343 70.7812 343H66.8945ZM70.7812 340.725C71.7057 340.725 72.4056 340.402 72.8809 339.758C73.3561 339.107 73.5938 338.16 73.5938 336.916C73.5938 335.679 73.3561 334.738 72.8809 334.094C72.4056 333.443 71.7057 333.117 70.7812 333.117H68.8965V340.725H70.7812ZM87.418 343.146C86.2331 343.146 85.224 342.906 84.3906 342.424C83.5638 341.942 82.9323 341.239 82.4961 340.314C82.0664 339.383 81.8516 338.251 81.8516 336.916C81.8516 335.588 82.0664 334.462 82.4961 333.537C82.9323 332.606 83.5638 331.903 84.3906 331.428C85.224 330.946 86.2331 330.705 87.418 330.705C88.6094 330.705 89.6185 330.946 90.4453 331.428C91.2786 331.903 91.9102 332.606 92.3398 333.537C92.7695 334.462 92.9844 335.588 92.9844 336.916C92.9844 338.251 92.7695 339.383 92.3398 340.314C91.9102 341.239 91.2786 341.942 90.4453 342.424C89.6185 342.906 88.6094 343.146 87.418 343.146ZM87.418 340.861C88.349 340.861 89.0521 340.526 89.5273 339.855C90.0026 339.178 90.2402 338.199 90.2402 336.916C90.2402 335.633 90.0026 334.66 89.5273 333.996C89.0521 333.332 88.349 333 87.418 333C86.4935 333 85.7904 333.335 85.3086 334.006C84.8333 334.67 84.5957 335.64 84.5957 336.916C84.5957 338.199 84.8366 339.178 85.3184 339.855C85.8001 340.526 86.5 340.861 87.418 340.861ZM102.229 343.029C101.532 343.029 101.184 342.847 101.184 342.482V333.117H98.4297C98.2474 333.117 98.1139 333.049 98.0293 332.912C97.9512 332.775 97.9121 332.554 97.9121 332.248V331.721C97.9121 331.415 97.9512 331.193 98.0293 331.057C98.1139 330.92 98.2474 330.852 98.4297 330.852H106.643C106.825 330.852 106.955 330.92 107.033 331.057C107.118 331.193 107.16 331.415 107.16 331.721V332.248C107.16 332.554 107.118 332.775 107.033 332.912C106.955 333.049 106.825 333.117 106.643 333.117H103.879V342.482C103.879 342.847 103.531 343.029 102.834 343.029H102.229ZM113.191 343C112.951 343 112.775 342.945 112.664 342.834C112.553 342.723 112.498 342.548 112.498 342.307V331.369C112.498 331.18 112.583 331.04 112.752 330.949C112.921 330.852 113.185 330.803 113.543 330.803H114.129C114.487 330.803 114.751 330.852 114.92 330.949C115.089 331.04 115.174 331.18 115.174 331.369V340.725H119.041C119.223 340.725 119.354 340.793 119.432 340.93C119.516 341.066 119.559 341.285 119.559 341.584V342.131C119.559 342.437 119.516 342.658 119.432 342.795C119.354 342.932 119.223 343 119.041 343H113.191ZM124.76 343.029C124.05 343.029 123.695 342.902 123.695 342.648C123.695 342.577 123.718 342.473 123.764 342.336L127.592 331.174C127.683 330.926 128.012 330.803 128.578 330.803H129.477C130.043 330.803 130.372 330.926 130.463 331.174L134.291 342.336C134.324 342.466 134.34 342.57 134.34 342.648C134.34 342.779 134.268 342.876 134.125 342.941C133.988 343 133.77 343.029 133.471 343.029H132.709C132.436 343.029 132.214 343.003 132.045 342.951C131.882 342.893 131.781 342.798 131.742 342.668L131.039 340.549H126.947L126.244 342.668C126.173 342.909 125.906 343.029 125.443 343.029H124.76ZM130.297 338.254L129.311 335.168C129.252 335.012 129.2 334.833 129.154 334.631C129.115 334.429 129.079 334.237 129.047 334.055H128.979L128.939 334.27C128.874 334.654 128.799 334.953 128.715 335.168L127.689 338.254H130.297ZM144.521 343.146C143.467 343.146 142.562 342.98 141.807 342.648C141.058 342.316 140.485 341.838 140.088 341.213C139.691 340.581 139.492 339.823 139.492 338.938V331.369C139.492 331.18 139.577 331.04 139.746 330.949C139.915 330.852 140.179 330.803 140.537 330.803H141.123C141.481 330.803 141.742 330.852 141.904 330.949C142.074 331.04 142.158 331.18 142.158 331.369V338.762C142.158 339.165 142.256 339.527 142.451 339.846C142.653 340.165 142.933 340.415 143.291 340.598C143.649 340.773 144.059 340.861 144.521 340.861C144.984 340.861 145.394 340.773 145.752 340.598C146.117 340.415 146.4 340.165 146.602 339.846C146.803 339.527 146.904 339.165 146.904 338.762V331.369C146.904 331.18 146.986 331.04 147.148 330.949C147.318 330.852 147.581 330.803 147.939 330.803H148.516C148.874 330.803 149.134 330.852 149.297 330.949C149.466 331.04 149.551 331.18 149.551 331.369V338.938C149.551 339.823 149.352 340.581 148.955 341.213C148.558 341.838 147.982 342.316 147.227 342.648C146.478 342.98 145.576 343.146 144.521 343.146ZM156.949 343.029C156.253 343.029 155.904 342.847 155.904 342.482V331.369C155.904 331.18 155.989 331.04 156.158 330.949C156.327 330.852 156.591 330.803 156.949 330.803H157.691C157.971 330.803 158.202 330.835 158.385 330.9C158.567 330.965 158.717 331.092 158.834 331.281L162.936 337.6L163.404 338.303V331.369C163.404 331.18 163.489 331.04 163.658 330.949C163.827 330.852 164.091 330.803 164.449 330.803H164.947C165.305 330.803 165.566 330.852 165.729 330.949C165.898 331.04 165.982 331.18 165.982 331.369V342.482C165.982 342.847 165.637 343.029 164.947 343.029H164.283C163.997 343.029 163.766 343 163.59 342.941C163.414 342.876 163.268 342.753 163.15 342.57L158.854 335.998L158.482 335.451V342.482C158.482 342.847 158.137 343.029 157.447 343.029H156.949ZM177.678 343.146C175.725 343.146 174.283 342.639 173.352 341.623C172.427 340.607 171.965 339.029 171.965 336.887C171.965 332.766 173.898 330.705 177.766 330.705C178.293 330.705 178.84 330.757 179.406 330.861C179.973 330.965 180.445 331.112 180.822 331.301C181.206 331.483 181.398 331.688 181.398 331.916C181.398 332.079 181.333 332.294 181.203 332.561C181.073 332.821 180.917 333.052 180.734 333.254C180.559 333.456 180.402 333.557 180.266 333.557C180.233 333.557 180.145 333.524 180.002 333.459C179.689 333.329 179.361 333.221 179.016 333.137C178.677 333.046 178.244 333 177.717 333C176.695 333 175.936 333.326 175.441 333.977C174.953 334.621 174.709 335.598 174.709 336.906C174.709 338.215 174.956 339.201 175.451 339.865C175.946 340.529 176.688 340.861 177.678 340.861C178.192 340.861 178.638 340.809 179.016 340.705C179.4 340.601 179.774 340.467 180.139 340.305C180.158 340.298 180.217 340.275 180.314 340.236C180.412 340.191 180.484 340.168 180.529 340.168C180.699 340.168 180.861 340.269 181.018 340.471C181.174 340.666 181.301 340.891 181.398 341.145C181.496 341.392 181.545 341.571 181.545 341.682C181.545 342.001 181.33 342.271 180.9 342.492C180.477 342.714 179.963 342.88 179.357 342.99C178.758 343.094 178.199 343.146 177.678 343.146ZM188.445 343.029C187.755 343.029 187.41 342.847 187.41 342.482V331.369C187.41 331.18 187.492 331.04 187.654 330.949C187.824 330.852 188.087 330.803 188.445 330.803H189.061C189.419 330.803 189.679 330.852 189.842 330.949C190.011 331.04 190.096 331.18 190.096 331.369V335.656H194.783V331.369C194.783 331.18 194.868 331.04 195.037 330.949C195.206 330.852 195.47 330.803 195.828 330.803H196.434C197.13 330.803 197.479 330.992 197.479 331.369V342.482C197.479 342.847 197.13 343.029 196.434 343.029H195.828C195.132 343.029 194.783 342.847 194.783 342.482V337.951H190.096V342.482C190.096 342.847 189.751 343.029 189.061 343.029H188.445Z" fill="#E3E2DF"/>
<path d="M38 278V319H2L38 278Z" fill="#1F0510"/>
<path d="M0 277H38L0 321V316V277Z" fill="#9A1750"/>
<path d="M238 285V297" stroke="#E3E2DF"/>
<path d="M245 291H231" stroke="#E3E2DF"/>
<path d="M355 29H615V148H355V29Z" fill="#7B1240"/>
<path d="M390.494 95.1465C388.541 95.1465 387.099 94.6387 386.168 93.623C385.243 92.6074 384.781 91.0286 384.781 88.8867C384.781 84.7656 386.715 82.7051 390.582 82.7051C391.109 82.7051 391.656 82.7572 392.223 82.8613C392.789 82.9655 393.261 83.112 393.639 83.3008C394.023 83.4831 394.215 83.6882 394.215 83.916C394.215 84.0788 394.15 84.2936 394.02 84.5605C393.889 84.821 393.733 85.0521 393.551 85.2539C393.375 85.4557 393.219 85.5566 393.082 85.5566C393.049 85.5566 392.962 85.5241 392.818 85.459C392.506 85.3288 392.177 85.2214 391.832 85.1367C391.493 85.0456 391.061 85 390.533 85C389.511 85 388.753 85.3255 388.258 85.9766C387.77 86.6211 387.525 87.5977 387.525 88.9062C387.525 90.2148 387.773 91.2012 388.268 91.8652C388.762 92.5293 389.505 92.8613 390.494 92.8613C391.008 92.8613 391.454 92.8092 391.832 92.7051C392.216 92.6009 392.59 92.4674 392.955 92.3047C392.975 92.2982 393.033 92.2754 393.131 92.2363C393.229 92.1908 393.3 92.168 393.346 92.168C393.515 92.168 393.678 92.2689 393.834 92.4707C393.99 92.666 394.117 92.8906 394.215 93.1445C394.312 93.3919 394.361 93.571 394.361 93.6816C394.361 94.0007 394.146 94.2708 393.717 94.4922C393.294 94.7135 392.779 94.8796 392.174 94.9902C391.575 95.0944 391.015 95.1465 390.494 95.1465ZM401.008 95.0293C400.311 95.0293 399.963 94.847 399.963 94.4824V83.5352C399.963 83.2943 400.018 83.1217 400.129 83.0176C400.24 82.9069 400.415 82.8516 400.656 82.8516H404.045C406.923 82.8516 408.361 83.9355 408.361 86.1035C408.361 86.7611 408.176 87.3275 407.805 87.8027C407.44 88.278 406.949 88.6328 406.33 88.8672V88.9355C406.545 89.0267 406.77 89.222 407.004 89.5215C407.245 89.821 407.437 90.1595 407.58 90.5371L409.113 94.3555C409.165 94.5117 409.191 94.6224 409.191 94.6875C409.191 94.9154 408.846 95.0293 408.156 95.0293H407.443C406.864 95.0293 406.529 94.9089 406.438 94.668L405.061 91.2793C404.93 91.0189 404.803 90.8171 404.68 90.6738C404.562 90.5306 404.396 90.4232 404.182 90.3516C403.967 90.2734 403.677 90.2344 403.312 90.2344H402.639V94.4824C402.639 94.847 402.29 95.0293 401.594 95.0293H401.008ZM404.279 87.9297C404.514 87.9297 404.735 87.8646 404.943 87.7344C405.152 87.5977 405.318 87.4154 405.441 87.1875C405.565 86.9596 405.627 86.709 405.627 86.4355C405.627 86.0319 405.493 85.7129 405.227 85.4785C404.966 85.2376 404.611 85.1172 404.162 85.1172H402.639V87.9297H404.279ZM415.262 95C415.021 95 414.845 94.9447 414.734 94.834C414.624 94.7233 414.568 94.5475 414.568 94.3066V83.5352C414.568 83.2943 414.624 83.1217 414.734 83.0176C414.845 82.9069 415.021 82.8516 415.262 82.8516H421.619C421.801 82.8516 421.932 82.9199 422.01 83.0566C422.094 83.1934 422.137 83.4147 422.137 83.7207V84.248C422.137 84.554 422.094 84.7754 422.01 84.9121C421.932 85.0488 421.801 85.1172 421.619 85.1172H417.244V87.6367H421.15C421.333 87.6367 421.463 87.7051 421.541 87.8418C421.626 87.9785 421.668 88.1999 421.668 88.5059V89.043C421.668 89.349 421.626 89.5703 421.541 89.707C421.463 89.8438 421.333 89.9121 421.15 89.9121H417.244V92.7246H421.629C421.811 92.7246 421.941 92.793 422.02 92.9297C422.104 93.0664 422.146 93.2845 422.146 93.584V94.1309C422.146 94.4368 422.104 94.6582 422.02 94.7949C421.941 94.9316 421.811 95 421.629 95H415.262ZM427.924 95.0293C427.214 95.0293 426.859 94.9023 426.859 94.6484C426.859 94.5768 426.882 94.4727 426.928 94.3359L430.756 83.1738C430.847 82.9264 431.176 82.8027 431.742 82.8027H432.641C433.207 82.8027 433.536 82.9264 433.627 83.1738L437.455 94.3359C437.488 94.4661 437.504 94.5703 437.504 94.6484C437.504 94.7786 437.432 94.8763 437.289 94.9414C437.152 95 436.934 95.0293 436.635 95.0293H435.873C435.6 95.0293 435.378 95.0033 435.209 94.9512C435.046 94.8926 434.945 94.7982 434.906 94.668L434.203 92.5488H430.111L429.408 94.668C429.337 94.9089 429.07 95.0293 428.607 95.0293H427.924ZM433.461 90.2539L432.475 87.168C432.416 87.0117 432.364 86.8327 432.318 86.6309C432.279 86.429 432.243 86.237 432.211 86.0547H432.143L432.104 86.2695C432.038 86.6536 431.964 86.9531 431.879 87.168L430.854 90.2539H433.461ZM446.211 95.1465C445.26 95.1465 444.469 94.9837 443.838 94.6582C443.213 94.3262 442.751 93.8867 442.451 93.3398C442.152 92.793 442.002 92.181 442.002 91.5039C442.002 90.7292 442.168 90.0814 442.5 89.5605C442.832 89.0397 443.255 88.6816 443.77 88.4863C443.359 88.2129 443.04 87.8776 442.812 87.4805C442.591 87.0833 442.48 86.5853 442.48 85.9863C442.48 85.4004 442.624 84.86 442.91 84.3652C443.197 83.8639 443.626 83.4635 444.199 83.1641C444.772 82.8581 445.472 82.7051 446.299 82.7051C447.028 82.7051 447.663 82.8418 448.203 83.1152C448.743 83.3887 449.157 83.7565 449.443 84.2188C449.736 84.681 449.883 85.1855 449.883 85.7324C449.883 86.4095 449.753 86.9466 449.492 87.3438C449.238 87.7344 448.867 88.0599 448.379 88.3203C449.648 88.8867 450.283 90.0033 450.283 91.6699C450.283 92.2428 450.143 92.7962 449.863 93.3301C449.583 93.8574 449.137 94.2936 448.525 94.6387C447.913 94.9772 447.142 95.1465 446.211 95.1465ZM446.455 87.5C446.768 87.2917 447.002 87.0508 447.158 86.7773C447.314 86.5039 447.393 86.2109 447.393 85.8984C447.393 85.5469 447.275 85.2669 447.041 85.0586C446.813 84.8438 446.536 84.7363 446.211 84.7363C445.879 84.7363 445.596 84.8405 445.361 85.0488C445.133 85.2507 445.02 85.5339 445.02 85.8984C445.02 86.3086 445.14 86.6309 445.381 86.8652C445.622 87.0996 445.98 87.3112 446.455 87.5ZM446.172 93.1055C446.491 93.1055 446.764 93.0273 446.992 92.8711C447.227 92.7148 447.399 92.5163 447.51 92.2754C447.627 92.028 447.686 91.7773 447.686 91.5234C447.686 91.0938 447.591 90.7454 447.402 90.4785C447.22 90.2051 446.986 89.9902 446.699 89.834C446.413 89.6777 446.029 89.5117 445.547 89.3359C445.234 89.5638 444.997 89.8372 444.834 90.1562C444.678 90.4753 444.6 90.8724 444.6 91.3477C444.6 91.8815 444.736 92.3079 445.01 92.627C445.29 92.946 445.677 93.1055 446.172 93.1055ZM467.443 95.1465C466.623 95.1465 465.9 95.0651 465.275 94.9023C464.657 94.7331 464.182 94.528 463.85 94.2871C463.524 94.0462 463.361 93.8184 463.361 93.6035C463.361 93.4342 463.423 93.2259 463.547 92.9785C463.677 92.7311 463.83 92.5195 464.006 92.3438C464.182 92.1615 464.328 92.0703 464.445 92.0703C464.517 92.0703 464.67 92.1322 464.904 92.2559C465.256 92.4382 465.588 92.5846 465.9 92.6953C466.219 92.806 466.584 92.8613 466.994 92.8613C467.45 92.8613 467.834 92.7734 468.146 92.5977C468.465 92.4154 468.625 92.0996 468.625 91.6504C468.625 91.39 468.544 91.1654 468.381 90.9766C468.218 90.7878 468.01 90.6283 467.756 90.498C467.502 90.3678 467.157 90.2148 466.721 90.0391L465.949 89.707C465.48 89.4792 465.077 89.2285 464.738 88.9551C464.406 88.6816 464.133 88.3203 463.918 87.8711C463.71 87.4219 463.605 86.8717 463.605 86.2207C463.605 85.4264 463.801 84.7656 464.191 84.2383C464.582 83.7109 465.09 83.3236 465.715 83.0762C466.34 82.8288 467.01 82.7051 467.727 82.7051C468.312 82.7051 468.843 82.7669 469.318 82.8906C469.794 83.0078 470.165 83.1608 470.432 83.3496C470.705 83.5384 470.842 83.7272 470.842 83.916C470.842 84.0723 470.79 84.2741 470.686 84.5215C470.588 84.7624 470.464 84.974 470.314 85.1562C470.165 85.3385 470.025 85.4297 469.895 85.4297C469.836 85.4297 469.732 85.3971 469.582 85.332C469.341 85.2344 469.097 85.1562 468.85 85.0977C468.609 85.0326 468.312 85 467.961 85C467.355 85 466.936 85.0977 466.701 85.293C466.467 85.4818 466.35 85.7064 466.35 85.9668C466.35 86.2663 466.428 86.5169 466.584 86.7188C466.747 86.9206 466.949 87.0866 467.189 87.2168C467.437 87.347 467.779 87.4967 468.215 87.666C468.872 87.946 469.41 88.2129 469.826 88.4668C470.243 88.7142 470.601 89.0723 470.9 89.541C471.206 90.0098 471.359 90.6087 471.359 91.3379C471.359 92.2298 471.171 92.9622 470.793 93.5352C470.422 94.1016 469.94 94.5117 469.348 94.7656C468.762 95.0195 468.127 95.1465 467.443 95.1465ZM482.02 95.1465C480.835 95.1465 479.826 94.9056 478.992 94.4238C478.165 93.9421 477.534 93.2389 477.098 92.3145C476.668 91.3835 476.453 90.2507 476.453 88.916C476.453 87.5879 476.668 86.4616 477.098 85.5371C477.534 84.6061 478.165 83.903 478.992 83.4277C479.826 82.946 480.835 82.7051 482.02 82.7051C483.211 82.7051 484.22 82.946 485.047 83.4277C485.88 83.903 486.512 84.6061 486.941 85.5371C487.371 86.4616 487.586 87.5879 487.586 88.916C487.586 90.2507 487.371 91.3835 486.941 92.3145C486.512 93.2389 485.88 93.9421 485.047 94.4238C484.22 94.9056 483.211 95.1465 482.02 95.1465ZM482.02 92.8613C482.951 92.8613 483.654 92.526 484.129 91.8555C484.604 91.1784 484.842 90.1986 484.842 88.916C484.842 87.6335 484.604 86.6602 484.129 85.9961C483.654 85.332 482.951 85 482.02 85C481.095 85 480.392 85.3353 479.91 86.0059C479.435 86.6699 479.197 87.64 479.197 88.916C479.197 90.1986 479.438 91.1784 479.92 91.8555C480.402 92.526 481.102 92.8613 482.02 92.8613ZM494.262 95C494.021 95 493.845 94.9447 493.734 94.834C493.624 94.7233 493.568 94.5475 493.568 94.3066V83.3691C493.568 83.1803 493.653 83.0404 493.822 82.9492C493.992 82.8516 494.255 82.8027 494.613 82.8027H495.199C495.557 82.8027 495.821 82.8516 495.99 82.9492C496.16 83.0404 496.244 83.1803 496.244 83.3691V92.7246H500.111C500.294 92.7246 500.424 92.793 500.502 92.9297C500.587 93.0664 500.629 93.2845 500.629 93.584V94.1309C500.629 94.4368 500.587 94.6582 500.502 94.7949C500.424 94.9316 500.294 95 500.111 95H494.262ZM510.947 95.1465C509.893 95.1465 508.988 94.9805 508.232 94.6484C507.484 94.3164 506.911 93.8379 506.514 93.2129C506.117 92.5814 505.918 91.8229 505.918 90.9375V83.3691C505.918 83.1803 506.003 83.0404 506.172 82.9492C506.341 82.8516 506.605 82.8027 506.963 82.8027H507.549C507.907 82.8027 508.167 82.8516 508.33 82.9492C508.499 83.0404 508.584 83.1803 508.584 83.3691V90.7617C508.584 91.1654 508.682 91.5267 508.877 91.8457C509.079 92.1647 509.359 92.4154 509.717 92.5977C510.075 92.7734 510.485 92.8613 510.947 92.8613C511.41 92.8613 511.82 92.7734 512.178 92.5977C512.542 92.4154 512.826 92.1647 513.027 91.8457C513.229 91.5267 513.33 91.1654 513.33 90.7617V83.3691C513.33 83.1803 513.411 83.0404 513.574 82.9492C513.743 82.8516 514.007 82.8027 514.365 82.8027H514.941C515.299 82.8027 515.56 82.8516 515.723 82.9492C515.892 83.0404 515.977 83.1803 515.977 83.3691V90.9375C515.977 91.8229 515.778 92.5814 515.381 93.2129C514.984 93.8379 514.408 94.3164 513.652 94.6484C512.904 94.9805 512.002 95.1465 510.947 95.1465ZM525.592 95.0293C524.895 95.0293 524.547 94.847 524.547 94.4824V85.1172H521.793C521.611 85.1172 521.477 85.0488 521.393 84.9121C521.314 84.7754 521.275 84.554 521.275 84.248V83.7207C521.275 83.4147 521.314 83.1934 521.393 83.0566C521.477 82.9199 521.611 82.8516 521.793 82.8516H530.006C530.188 82.8516 530.318 82.9199 530.396 83.0566C530.481 83.1934 530.523 83.4147 530.523 83.7207V84.248C530.523 84.554 530.481 84.7754 530.396 84.9121C530.318 85.0488 530.188 85.1172 530.006 85.1172H527.242V94.4824C527.242 94.847 526.894 95.0293 526.197 95.0293H525.592ZM536.799 95.0488C536.447 95.0488 536.184 95 536.008 94.9023C535.839 94.8047 535.754 94.6647 535.754 94.4824V83.3691C535.754 82.985 536.102 82.793 536.799 82.793H537.404C537.762 82.793 538.023 82.8418 538.186 82.9395C538.355 83.0371 538.439 83.1803 538.439 83.3691V94.4824C538.439 94.86 538.094 95.0488 537.404 95.0488H536.799ZM549.91 95.1465C548.725 95.1465 547.716 94.9056 546.883 94.4238C546.056 93.9421 545.424 93.2389 544.988 92.3145C544.559 91.3835 544.344 90.2507 544.344 88.916C544.344 87.5879 544.559 86.4616 544.988 85.5371C545.424 84.6061 546.056 83.903 546.883 83.4277C547.716 82.946 548.725 82.7051 549.91 82.7051C551.102 82.7051 552.111 82.946 552.938 83.4277C553.771 83.903 554.402 84.6061 554.832 85.5371C555.262 86.4616 555.477 87.5879 555.477 88.916C555.477 90.2507 555.262 91.3835 554.832 92.3145C554.402 93.2389 553.771 93.9421 552.938 94.4238C552.111 94.9056 551.102 95.1465 549.91 95.1465ZM549.91 92.8613C550.841 92.8613 551.544 92.526 552.02 91.8555C552.495 91.1784 552.732 90.1986 552.732 88.916C552.732 87.6335 552.495 86.6602 552.02 85.9961C551.544 85.332 550.841 85 549.91 85C548.986 85 548.283 85.3353 547.801 86.0059C547.326 86.6699 547.088 87.64 547.088 88.916C547.088 90.1986 547.329 91.1784 547.811 91.8555C548.292 92.526 548.992 92.8613 549.91 92.8613ZM562.504 95.0293C561.807 95.0293 561.459 94.847 561.459 94.4824V83.3691C561.459 83.1803 561.544 83.0404 561.713 82.9492C561.882 82.8516 562.146 82.8027 562.504 82.8027H563.246C563.526 82.8027 563.757 82.8353 563.939 82.9004C564.122 82.9655 564.271 83.0924 564.389 83.2812L568.49 89.5996L568.959 90.3027V83.3691C568.959 83.1803 569.044 83.0404 569.213 82.9492C569.382 82.8516 569.646 82.8027 570.004 82.8027H570.502C570.86 82.8027 571.12 82.8516 571.283 82.9492C571.452 83.0404 571.537 83.1803 571.537 83.3691V94.4824C571.537 94.847 571.192 95.0293 570.502 95.0293H569.838C569.551 95.0293 569.32 95 569.145 94.9414C568.969 94.8763 568.822 94.7526 568.705 94.5703L564.408 87.998L564.037 87.4512V94.4824C564.037 94.847 563.692 95.0293 563.002 95.0293H562.504ZM581.201 95.1465C580.381 95.1465 579.658 95.0651 579.033 94.9023C578.415 94.7331 577.939 94.528 577.607 94.2871C577.282 94.0462 577.119 93.8184 577.119 93.6035C577.119 93.4342 577.181 93.2259 577.305 92.9785C577.435 92.7311 577.588 92.5195 577.764 92.3438C577.939 92.1615 578.086 92.0703 578.203 92.0703C578.275 92.0703 578.428 92.1322 578.662 92.2559C579.014 92.4382 579.346 92.5846 579.658 92.6953C579.977 92.806 580.342 92.8613 580.752 92.8613C581.208 92.8613 581.592 92.7734 581.904 92.5977C582.223 92.4154 582.383 92.0996 582.383 91.6504C582.383 91.39 582.301 91.1654 582.139 90.9766C581.976 90.7878 581.768 90.6283 581.514 90.498C581.26 90.3678 580.915 90.2148 580.479 90.0391L579.707 89.707C579.238 89.4792 578.835 89.2285 578.496 88.9551C578.164 88.6816 577.891 88.3203 577.676 87.8711C577.467 87.4219 577.363 86.8717 577.363 86.2207C577.363 85.4264 577.559 84.7656 577.949 84.2383C578.34 83.7109 578.848 83.3236 579.473 83.0762C580.098 82.8288 580.768 82.7051 581.484 82.7051C582.07 82.7051 582.601 82.7669 583.076 82.8906C583.551 83.0078 583.923 83.1608 584.189 83.3496C584.463 83.5384 584.6 83.7272 584.6 83.916C584.6 84.0723 584.548 84.2741 584.443 84.5215C584.346 84.7624 584.222 84.974 584.072 85.1562C583.923 85.3385 583.783 85.4297 583.652 85.4297C583.594 85.4297 583.49 85.3971 583.34 85.332C583.099 85.2344 582.855 85.1562 582.607 85.0977C582.367 85.0326 582.07 85 581.719 85C581.113 85 580.693 85.0977 580.459 85.293C580.225 85.4818 580.107 85.7064 580.107 85.9668C580.107 86.2663 580.186 86.5169 580.342 86.7188C580.505 86.9206 580.706 87.0866 580.947 87.2168C581.195 87.347 581.536 87.4967 581.973 87.666C582.63 87.946 583.167 88.2129 583.584 88.4668C584.001 88.7142 584.359 89.0723 584.658 89.541C584.964 90.0098 585.117 90.6087 585.117 91.3379C585.117 92.2298 584.928 92.9622 584.551 93.5352C584.18 94.1016 583.698 94.5117 583.105 94.7656C582.52 95.0195 581.885 95.1465 581.201 95.1465Z" fill="#E3E2DF"/>
<path d="M582 29V70H615L582 29Z" fill="#1F0510"/>
<path d="M615 24H577L615 68V63V24Z" fill="#1E1E1E"/>
<path d="M177 133.408V51H308V253H177V133.408Z" fill="#7B1240"/>
<path d="M207.246 148.029C206.549 148.029 206.201 147.847 206.201 147.482V136.535C206.201 136.294 206.257 136.122 206.367 136.018C206.478 135.907 206.654 135.852 206.895 135.852H210.547C211.628 135.852 212.585 136.115 213.418 136.643C214.251 137.17 214.668 138.173 214.668 139.65C214.668 140.666 214.427 141.457 213.945 142.023C213.464 142.583 212.92 142.961 212.314 143.156C211.715 143.352 211.182 143.449 210.713 143.449H208.877V147.482C208.877 147.847 208.529 148.029 207.832 148.029H207.246ZM210.42 141.154C210.837 141.154 211.191 141.044 211.484 140.822C211.784 140.601 211.934 140.21 211.934 139.65C211.934 139.084 211.784 138.687 211.484 138.459C211.185 138.231 210.83 138.117 210.42 138.117H208.877V141.154H210.42ZM220.328 148.029C219.632 148.029 219.283 147.847 219.283 147.482V145.881C219.283 145.51 219.632 145.324 220.328 145.324H220.885C221.243 145.324 221.503 145.373 221.666 145.471C221.835 145.562 221.92 145.699 221.92 145.881V147.482C221.92 147.847 221.575 148.029 220.885 148.029H220.328ZM230.822 148.029C230.126 148.029 229.777 147.847 229.777 147.482V138.117H227.023C226.841 138.117 226.708 138.049 226.623 137.912C226.545 137.775 226.506 137.554 226.506 137.248V136.721C226.506 136.415 226.545 136.193 226.623 136.057C226.708 135.92 226.841 135.852 227.023 135.852H235.236C235.419 135.852 235.549 135.92 235.627 136.057C235.712 136.193 235.754 136.415 235.754 136.721V137.248C235.754 137.554 235.712 137.775 235.627 137.912C235.549 138.049 235.419 138.117 235.236 138.117H232.473V147.482C232.473 147.847 232.124 148.029 231.428 148.029H230.822ZM241.785 148C241.544 148 241.368 147.945 241.258 147.834C241.147 147.723 241.092 147.548 241.092 147.307V136.535C241.092 136.294 241.147 136.122 241.258 136.018C241.368 135.907 241.544 135.852 241.785 135.852H248.143C248.325 135.852 248.455 135.92 248.533 136.057C248.618 136.193 248.66 136.415 248.66 136.721V137.248C248.66 137.554 248.618 137.775 248.533 137.912C248.455 138.049 248.325 138.117 248.143 138.117H243.768V140.637H247.674C247.856 140.637 247.986 140.705 248.064 140.842C248.149 140.979 248.191 141.2 248.191 141.506V142.043C248.191 142.349 248.149 142.57 248.064 142.707C247.986 142.844 247.856 142.912 247.674 142.912H243.768V145.725H248.152C248.335 145.725 248.465 145.793 248.543 145.93C248.628 146.066 248.67 146.285 248.67 146.584V147.131C248.67 147.437 248.628 147.658 248.543 147.795C248.465 147.932 248.335 148 248.152 148H241.785ZM259.877 148.146C257.924 148.146 256.482 147.639 255.551 146.623C254.626 145.607 254.164 144.029 254.164 141.887C254.164 137.766 256.098 135.705 259.965 135.705C260.492 135.705 261.039 135.757 261.605 135.861C262.172 135.965 262.644 136.112 263.021 136.301C263.406 136.483 263.598 136.688 263.598 136.916C263.598 137.079 263.533 137.294 263.402 137.561C263.272 137.821 263.116 138.052 262.934 138.254C262.758 138.456 262.602 138.557 262.465 138.557C262.432 138.557 262.344 138.524 262.201 138.459C261.889 138.329 261.56 138.221 261.215 138.137C260.876 138.046 260.443 138 259.916 138C258.894 138 258.135 138.326 257.641 138.977C257.152 139.621 256.908 140.598 256.908 141.906C256.908 143.215 257.156 144.201 257.65 144.865C258.145 145.529 258.887 145.861 259.877 145.861C260.391 145.861 260.837 145.809 261.215 145.705C261.599 145.601 261.973 145.467 262.338 145.305C262.357 145.298 262.416 145.275 262.514 145.236C262.611 145.191 262.683 145.168 262.729 145.168C262.898 145.168 263.061 145.269 263.217 145.471C263.373 145.666 263.5 145.891 263.598 146.145C263.695 146.392 263.744 146.571 263.744 146.682C263.744 147.001 263.529 147.271 263.1 147.492C262.676 147.714 262.162 147.88 261.557 147.99C260.958 148.094 260.398 148.146 259.877 148.146ZM270.645 148.029C269.954 148.029 269.609 147.847 269.609 147.482V136.369C269.609 136.18 269.691 136.04 269.854 135.949C270.023 135.852 270.286 135.803 270.645 135.803H271.26C271.618 135.803 271.878 135.852 272.041 135.949C272.21 136.04 272.295 136.18 272.295 136.369V140.656H276.982V136.369C276.982 136.18 277.067 136.04 277.236 135.949C277.406 135.852 277.669 135.803 278.027 135.803H278.633C279.329 135.803 279.678 135.992 279.678 136.369V147.482C279.678 147.847 279.329 148.029 278.633 148.029H278.027C277.331 148.029 276.982 147.847 276.982 147.482V142.951H272.295V147.482C272.295 147.847 271.95 148.029 271.26 148.029H270.645Z" fill="#E3E2DF"/>
<path d="M277 51V91H308L277 51Z" fill="#1F0510"/>
<g filter="url(#filter0_d_10_157)">
<path d="M249.244 165L241 173.719" stroke="#E3E2DF" stroke-opacity="0.36" shape-rendering="crispEdges"/>
</g>
<g filter="url(#filter1_d_10_157)">
<path d="M249.719 173.244L241 165" stroke="#E3E2DF" stroke-opacity="0.36" shape-rendering="crispEdges"/>
</g>
<path fill-rule="evenodd" clip-rule="evenodd" d="M431.048 146.394C435.64 141.389 438.749 135.255 438.229 128.382C436.733 108.578 407.044 112.935 401.269 122.93C395.494 132.925 396.18 158.278 403.644 160.065C406.62 160.777 412.961 159.032 419.415 155.42L415.364 182.03H439.282L431.048 146.394Z" fill="#915B3C"/>
<path fill-rule="evenodd" clip-rule="evenodd" d="M432.886 150.852C435.888 138.451 444.44 129.997 443.134 124.455C442.263 120.76 439.943 118.462 436.172 117.561C434.221 110.235 427.931 107.119 417.302 108.213C401.357 109.854 391.626 116.002 395.828 129.531C399.691 129.531 404.355 128.234 410.804 130.457C412.85 131.162 414.314 133.349 415.195 137.018H418.109C420.937 132.664 423.726 131.064 426.475 132.218C429.225 133.372 429.849 136.175 428.35 140.627L429.786 150.852H432.886Z" fill="#191847"/>
<path fill-rule="evenodd" clip-rule="evenodd" d="M506.054 297.701H391.446C382.639 297.701 375.5 304.33 375.5 312.507V397.642C375.5 405.819 382.639 412.448 391.446 412.448H506.054C514.861 412.448 522 405.819 522 397.642V312.507C522 304.33 514.861 297.701 506.054 297.701ZM490.109 323.612C492.311 323.612 494.095 325.269 494.095 327.313V382.836C494.095 384.88 492.311 386.537 490.109 386.537H407.391C405.19 386.537 403.405 384.88 403.405 382.836V327.313C403.405 325.269 405.19 323.612 407.391 323.612H490.109Z" fill="#C5CFD6"/>
<path fill-rule="evenodd" clip-rule="evenodd" d="M276.678 407.821C296.327 385.542 309.622 369.025 316.563 358.271C328.447 339.857 338.174 323.471 341.244 317.212C348.564 302.287 324.392 295.298 318.922 302.26C310.642 312.797 292.96 345.953 265.874 401.73L276.678 407.821Z" fill="#B28B67"/>
<path fill-rule="evenodd" clip-rule="evenodd" d="M316.942 401.343L353.51 315.873C361.331 300.292 323.561 290.051 317.814 297.302C304.764 313.763 273.748 378.703 269.861 383.608L316.942 401.343Z" fill="#2F3676"/>
<path fill-rule="evenodd" clip-rule="evenodd" d="M414.334 384.203C407.211 374.555 381.302 342.096 367.189 328.665C363.134 324.806 359.177 321.102 355.435 317.65C344.311 307.39 322.158 324.635 333.262 333.98C360.914 357.254 401.261 388.672 404.632 391.473C409.357 395.4 418.811 390.266 414.334 384.203V384.203Z" fill="#915B3C"/>
<path fill-rule="evenodd" clip-rule="evenodd" d="M412.669 379.844C415.122 381.72 416.719 383.252 417.457 384.44C418.356 385.885 419.408 388.133 420.613 391.184L371.934 417.28C368.255 414.075 367.681 411.587 370.214 409.817C372.747 408.046 374.837 406.552 376.485 405.337L393.287 383.841C393.61 383.428 394.234 383.336 394.679 383.636C394.687 383.641 394.694 383.646 394.702 383.652L398.193 386.148C401.396 385.888 403.786 385.336 405.363 384.49C406.645 383.803 408.116 382.374 409.777 380.202L409.776 380.202C410.414 379.368 411.658 379.172 412.556 379.764C412.594 379.79 412.632 379.816 412.669 379.844V379.844Z" fill="#E4E4E4"/>
<path fill-rule="evenodd" clip-rule="evenodd" d="M285.13 404.491C286.245 407.255 286.803 409.323 286.803 410.695C286.803 412.363 286.503 414.799 285.905 418H229.695C228.234 413.516 229.077 411.095 232.224 410.738C235.371 410.38 237.986 410.058 240.067 409.769L266.193 398.955C266.696 398.747 267.285 398.956 267.509 399.423C267.513 399.431 267.517 399.439 267.52 399.447L269.2 403.23C272.113 404.492 274.48 405.123 276.302 405.123C277.782 405.123 279.826 404.568 282.433 403.458L282.433 403.458C283.434 403.032 284.617 403.44 285.076 404.369C285.095 404.409 285.114 404.45 285.13 404.491V404.491Z" fill="#E4E4E4"/>
<path fill-rule="evenodd" clip-rule="evenodd" d="M366.668 320.142C397.061 315.544 417.419 312.401 427.741 310.71C457.164 305.893 465.744 291.192 460.671 259.115H406.46C399.286 261.039 369.311 272.936 316.534 294.807C307.038 299.184 308.807 312.089 310.542 316.34C310.613 316.514 326.621 341.983 358.566 392.749L402.912 366.517L366.585 323.233C365.625 321.439 365.653 320.408 366.668 320.142V320.142Z" fill="#5C63AB"/>
<path fill-rule="evenodd" clip-rule="evenodd" d="M362.762 247.002L330.973 268.677C322.351 270.838 315.147 273.525 309.362 276.74C307.996 277.897 306.344 280.238 312.011 279.833C317.678 279.429 323.659 279.24 324.441 281.035C325.223 282.829 321.794 284.976 323.374 287.397C324.428 289.012 329.406 284.964 338.31 275.253L369.79 263.132L362.762 247.002ZM484.819 247.75L463.993 247.826C476.852 286.371 483.794 306.823 484.819 309.181C487.125 314.488 482.245 322.57 480.158 326.913C486.955 329.737 486.231 319.278 494.805 322.982C502.631 326.363 508.584 332.489 517.626 327.308C518.738 326.671 519.956 324.273 517.013 322.399C509.68 317.731 499.113 309.56 497.685 306.87C495.738 303.203 491.449 283.496 484.819 247.75Z" fill="#915B3C"/>
<path fill-rule="evenodd" clip-rule="evenodd" d="M425.634 166.606L417.016 165.233C385.042 190.88 371.909 240.152 332.717 266.252L342.15 277.11C410.142 269.293 426.994 209.194 425.634 166.606V166.606Z" fill="#E87613"/>
<path fill-rule="evenodd" clip-rule="evenodd" d="M463.201 267.164H386.949C383.465 267.164 384.122 262.493 384.625 260.135C390.438 232.929 413.13 203.602 413.13 164.874L435.125 161.672C453.317 188.839 459.608 222.288 463.201 267.164V267.164Z" fill="#DDE3E9"/>
<path fill-rule="evenodd" clip-rule="evenodd" d="M462.588 188.376C465.782 187.523 468.312 185.535 470.177 182.41C478.216 168.941 475.313 161.526 466.721 159.088C458.13 156.651 450.469 161.672 436.781 161.672C436.036 161.672 435.354 161.715 434.735 161.802L427.85 162.166C408.095 224.333 402.646 265.81 411.505 286.597H471.52C475.076 294.296 478.479 300.774 481.728 306.03H498.082C499.621 259.823 487.789 220.605 462.588 188.376V188.376Z" fill="#FF9B21"/>
<path fill-rule="evenodd" clip-rule="evenodd" d="M458.452 254.669C456.564 269.333 453.496 279.976 449.248 286.597H471.521C467.373 277.616 463.016 266.974 458.452 254.669V254.669Z" fill="black" fill-opacity="0.1"/>
<circle cx="536.5" cy="70.5" r="5.5" fill="#E3E2DF"/>
<path d="M390.494 95.1465C388.541 95.1465 387.099 94.6387 386.168 93.623C385.243 92.6074 384.781 91.0286 384.781 88.8867C384.781 84.7656 386.715 82.7051 390.582 82.7051C391.109 82.7051 391.656 82.7572 392.223 82.8613C392.789 82.9655 393.261 83.112 393.639 83.3008C394.023 83.4831 394.215 83.6882 394.215 83.916C394.215 84.0788 394.15 84.2936 394.02 84.5605C393.889 84.821 393.733 85.0521 393.551 85.2539C393.375 85.4557 393.219 85.5566 393.082 85.5566C393.049 85.5566 392.962 85.5241 392.818 85.459C392.506 85.3288 392.177 85.2214 391.832 85.1367C391.493 85.0456 391.061 85 390.533 85C389.511 85 388.753 85.3255 388.258 85.9766C387.77 86.6211 387.525 87.5977 387.525 88.9062C387.525 90.2148 387.773 91.2012 388.268 91.8652C388.762 92.5293 389.505 92.8613 390.494 92.8613C391.008 92.8613 391.454 92.8092 391.832 92.7051C392.216 92.6009 392.59 92.4674 392.955 92.3047C392.975 92.2982 393.033 92.2754 393.131 92.2363C393.229 92.1908 393.3 92.168 393.346 92.168C393.515 92.168 393.678 92.2689 393.834 92.4707C393.99 92.666 394.117 92.8906 394.215 93.1445C394.312 93.3919 394.361 93.571 394.361 93.6816C394.361 94.0007 394.146 94.2708 393.717 94.4922C393.294 94.7135 392.779 94.8796 392.174 94.9902C391.575 95.0944 391.015 95.1465 390.494 95.1465ZM401.008 95.0293C400.311 95.0293 399.963 94.847 399.963 94.4824V83.5352C399.963 83.2943 400.018 83.1217 400.129 83.0176C400.24 82.9069 400.415 82.8516 400.656 82.8516H404.045C406.923 82.8516 408.361 83.9355 408.361 86.1035C408.361 86.7611 408.176 87.3275 407.805 87.8027C407.44 88.278 406.949 88.6328 406.33 88.8672V88.9355C406.545 89.0267 406.77 89.222 407.004 89.5215C407.245 89.821 407.437 90.1595 407.58 90.5371L409.113 94.3555C409.165 94.5117 409.191 94.6224 409.191 94.6875C409.191 94.9154 408.846 95.0293 408.156 95.0293H407.443C406.864 95.0293 406.529 94.9089 406.438 94.668L405.061 91.2793C404.93 91.0189 404.803 90.8171 404.68 90.6738C404.562 90.5306 404.396 90.4232 404.182 90.3516C403.967 90.2734 403.677 90.2344 403.312 90.2344H402.639V94.4824C402.639 94.847 402.29 95.0293 401.594 95.0293H401.008ZM404.279 87.9297C404.514 87.9297 404.735 87.8646 404.943 87.7344C405.152 87.5977 405.318 87.4154 405.441 87.1875C405.565 86.9596 405.627 86.709 405.627 86.4355C405.627 86.0319 405.493 85.7129 405.227 85.4785C404.966 85.2376 404.611 85.1172 404.162 85.1172H402.639V87.9297H404.279ZM415.262 95C415.021 95 414.845 94.9447 414.734 94.834C414.624 94.7233 414.568 94.5475 414.568 94.3066V83.5352C414.568 83.2943 414.624 83.1217 414.734 83.0176C414.845 82.9069 415.021 82.8516 415.262 82.8516H421.619C421.801 82.8516 421.932 82.9199 422.01 83.0566C422.094 83.1934 422.137 83.4147 422.137 83.7207V84.248C422.137 84.554 422.094 84.7754 422.01 84.9121C421.932 85.0488 421.801 85.1172 421.619 85.1172H417.244V87.6367H421.15C421.333 87.6367 421.463 87.7051 421.541 87.8418C421.626 87.9785 421.668 88.1999 421.668 88.5059V89.043C421.668 89.349 421.626 89.5703 421.541 89.707C421.463 89.8438 421.333 89.9121 421.15 89.9121H417.244V92.7246H421.629C421.811 92.7246 421.941 92.793 422.02 92.9297C422.104 93.0664 422.146 93.2845 422.146 93.584V94.1309C422.146 94.4368 422.104 94.6582 422.02 94.7949C421.941 94.9316 421.811 95 421.629 95H415.262ZM427.924 95.0293C427.214 95.0293 426.859 94.9023 426.859 94.6484C426.859 94.5768 426.882 94.4727 426.928 94.3359L430.756 83.1738C430.847 82.9264 431.176 82.8027 431.742 82.8027H432.641C433.207 82.8027 433.536 82.9264 433.627 83.1738L437.455 94.3359C437.488 94.4661 437.504 94.5703 437.504 94.6484C437.504 94.7786 437.432 94.8763 437.289 94.9414C437.152 95 436.934 95.0293 436.635 95.0293H435.873C435.6 95.0293 435.378 95.0033 435.209 94.9512C435.046 94.8926 434.945 94.7982 434.906 94.668L434.203 92.5488H430.111L429.408 94.668C429.337 94.9089 429.07 95.0293 428.607 95.0293H427.924ZM433.461 90.2539L432.475 87.168C432.416 87.0117 432.364 86.8327 432.318 86.6309C432.279 86.429 432.243 86.237 432.211 86.0547H432.143L432.104 86.2695C432.038 86.6536 431.964 86.9531 431.879 87.168L430.854 90.2539H433.461ZM446.211 95.1465C445.26 95.1465 444.469 94.9837 443.838 94.6582C443.213 94.3262 442.751 93.8867 442.451 93.3398C442.152 92.793 442.002 92.181 442.002 91.5039C442.002 90.7292 442.168 90.0814 442.5 89.5605C442.832 89.0397 443.255 88.6816 443.77 88.4863C443.359 88.2129 443.04 87.8776 442.812 87.4805C442.591 87.0833 442.48 86.5853 442.48 85.9863C442.48 85.4004 442.624 84.86 442.91 84.3652C443.197 83.8639 443.626 83.4635 444.199 83.1641C444.772 82.8581 445.472 82.7051 446.299 82.7051C447.028 82.7051 447.663 82.8418 448.203 83.1152C448.743 83.3887 449.157 83.7565 449.443 84.2188C449.736 84.681 449.883 85.1855 449.883 85.7324C449.883 86.4095 449.753 86.9466 449.492 87.3438C449.238 87.7344 448.867 88.0599 448.379 88.3203C449.648 88.8867 450.283 90.0033 450.283 91.6699C450.283 92.2428 450.143 92.7962 449.863 93.3301C449.583 93.8574 449.137 94.2936 448.525 94.6387C447.913 94.9772 447.142 95.1465 446.211 95.1465ZM446.455 87.5C446.768 87.2917 447.002 87.0508 447.158 86.7773C447.314 86.5039 447.393 86.2109 447.393 85.8984C447.393 85.5469 447.275 85.2669 447.041 85.0586C446.813 84.8438 446.536 84.7363 446.211 84.7363C445.879 84.7363 445.596 84.8405 445.361 85.0488C445.133 85.2507 445.02 85.5339 445.02 85.8984C445.02 86.3086 445.14 86.6309 445.381 86.8652C445.622 87.0996 445.98 87.3112 446.455 87.5ZM446.172 93.1055C446.491 93.1055 446.764 93.0273 446.992 92.8711C447.227 92.7148 447.399 92.5163 447.51 92.2754C447.627 92.028 447.686 91.7773 447.686 91.5234C447.686 91.0938 447.591 90.7454 447.402 90.4785C447.22 90.2051 446.986 89.9902 446.699 89.834C446.413 89.6777 446.029 89.5117 445.547 89.3359C445.234 89.5638 444.997 89.8372 444.834 90.1562C444.678 90.4753 444.6 90.8724 444.6 91.3477C444.6 91.8815 444.736 92.3079 445.01 92.627C445.29 92.946 445.677 93.1055 446.172 93.1055ZM467.443 95.1465C466.623 95.1465 465.9 95.0651 465.275 94.9023C464.657 94.7331 464.182 94.528 463.85 94.2871C463.524 94.0462 463.361 93.8184 463.361 93.6035C463.361 93.4342 463.423 93.2259 463.547 92.9785C463.677 92.7311 463.83 92.5195 464.006 92.3438C464.182 92.1615 464.328 92.0703 464.445 92.0703C464.517 92.0703 464.67 92.1322 464.904 92.2559C465.256 92.4382 465.588 92.5846 465.9 92.6953C466.219 92.806 466.584 92.8613 466.994 92.8613C467.45 92.8613 467.834 92.7734 468.146 92.5977C468.465 92.4154 468.625 92.0996 468.625 91.6504C468.625 91.39 468.544 91.1654 468.381 90.9766C468.218 90.7878 468.01 90.6283 467.756 90.498C467.502 90.3678 467.157 90.2148 466.721 90.0391L465.949 89.707C465.48 89.4792 465.077 89.2285 464.738 88.9551C464.406 88.6816 464.133 88.3203 463.918 87.8711C463.71 87.4219 463.605 86.8717 463.605 86.2207C463.605 85.4264 463.801 84.7656 464.191 84.2383C464.582 83.7109 465.09 83.3236 465.715 83.0762C466.34 82.8288 467.01 82.7051 467.727 82.7051C468.312 82.7051 468.843 82.7669 469.318 82.8906C469.794 83.0078 470.165 83.1608 470.432 83.3496C470.705 83.5384 470.842 83.7272 470.842 83.916C470.842 84.0723 470.79 84.2741 470.686 84.5215C470.588 84.7624 470.464 84.974 470.314 85.1562C470.165 85.3385 470.025 85.4297 469.895 85.4297C469.836 85.4297 469.732 85.3971 469.582 85.332C469.341 85.2344 469.097 85.1562 468.85 85.0977C468.609 85.0326 468.312 85 467.961 85C467.355 85 466.936 85.0977 466.701 85.293C466.467 85.4818 466.35 85.7064 466.35 85.9668C466.35 86.2663 466.428 86.5169 466.584 86.7188C466.747 86.9206 466.949 87.0866 467.189 87.2168C467.437 87.347 467.779 87.4967 468.215 87.666C468.872 87.946 469.41 88.2129 469.826 88.4668C470.243 88.7142 470.601 89.0723 470.9 89.541C471.206 90.0098 471.359 90.6087 471.359 91.3379C471.359 92.2298 471.171 92.9622 470.793 93.5352C470.422 94.1016 469.94 94.5117 469.348 94.7656C468.762 95.0195 468.127 95.1465 467.443 95.1465ZM482.02 95.1465C480.835 95.1465 479.826 94.9056 478.992 94.4238C478.165 93.9421 477.534 93.2389 477.098 92.3145C476.668 91.3835 476.453 90.2507 476.453 88.916C476.453 87.5879 476.668 86.4616 477.098 85.5371C477.534 84.6061 478.165 83.903 478.992 83.4277C479.826 82.946 480.835 82.7051 482.02 82.7051C483.211 82.7051 484.22 82.946 485.047 83.4277C485.88 83.903 486.512 84.6061 486.941 85.5371C487.371 86.4616 487.586 87.5879 487.586 88.916C487.586 90.2507 487.371 91.3835 486.941 92.3145C486.512 93.2389 485.88 93.9421 485.047 94.4238C484.22 94.9056 483.211 95.1465 482.02 95.1465ZM482.02 92.8613C482.951 92.8613 483.654 92.526 484.129 91.8555C484.604 91.1784 484.842 90.1986 484.842 88.916C484.842 87.6335 484.604 86.6602 484.129 85.9961C483.654 85.332 482.951 85 482.02 85C481.095 85 480.392 85.3353 479.91 86.0059C479.435 86.6699 479.197 87.64 479.197 88.916C479.197 90.1986 479.438 91.1784 479.92 91.8555C480.402 92.526 481.102 92.8613 482.02 92.8613ZM494.262 95C494.021 95 493.845 94.9447 493.734 94.834C493.624 94.7233 493.568 94.5475 493.568 94.3066V83.3691C493.568 83.1803 493.653 83.0404 493.822 82.9492C493.992 82.8516 494.255 82.8027 494.613 82.8027H495.199C495.557 82.8027 495.821 82.8516 495.99 82.9492C496.16 83.0404 496.244 83.1803 496.244 83.3691V92.7246H500.111C500.294 92.7246 500.424 92.793 500.502 92.9297C500.587 93.0664 500.629 93.2845 500.629 93.584V94.1309C500.629 94.4368 500.587 94.6582 500.502 94.7949C500.424 94.9316 500.294 95 500.111 95H494.262ZM510.947 95.1465C509.893 95.1465 508.988 94.9805 508.232 94.6484C507.484 94.3164 506.911 93.8379 506.514 93.2129C506.117 92.5814 505.918 91.8229 505.918 90.9375V83.3691C505.918 83.1803 506.003 83.0404 506.172 82.9492C506.341 82.8516 506.605 82.8027 506.963 82.8027H507.549C507.907 82.8027 508.167 82.8516 508.33 82.9492C508.499 83.0404 508.584 83.1803 508.584 83.3691V90.7617C508.584 91.1654 508.682 91.5267 508.877 91.8457C509.079 92.1647 509.359 92.4154 509.717 92.5977C510.075 92.7734 510.485 92.8613 510.947 92.8613C511.41 92.8613 511.82 92.7734 512.178 92.5977C512.542 92.4154 512.826 92.1647 513.027 91.8457C513.229 91.5267 513.33 91.1654 513.33 90.7617V83.3691C513.33 83.1803 513.411 83.0404 513.574 82.9492C513.743 82.8516 514.007 82.8027 514.365 82.8027H514.941C515.299 82.8027 515.56 82.8516 515.723 82.9492C515.892 83.0404 515.977 83.1803 515.977 83.3691V90.9375C515.977 91.8229 515.778 92.5814 515.381 93.2129C514.984 93.8379 514.408 94.3164 513.652 94.6484C512.904 94.9805 512.002 95.1465 510.947 95.1465ZM525.592 95.0293C524.895 95.0293 524.547 94.847 524.547 94.4824V85.1172H521.793C521.611 85.1172 521.477 85.0488 521.393 84.9121C521.314 84.7754 521.275 84.554 521.275 84.248V83.7207C521.275 83.4147 521.314 83.1934 521.393 83.0566C521.477 82.9199 521.611 82.8516 521.793 82.8516H530.006C530.188 82.8516 530.318 82.9199 530.396 83.0566C530.481 83.1934 530.523 83.4147 530.523 83.7207V84.248C530.523 84.554 530.481 84.7754 530.396 84.9121C530.318 85.0488 530.188 85.1172 530.006 85.1172H527.242V94.4824C527.242 94.847 526.894 95.0293 526.197 95.0293H525.592ZM536.799 95.0488C536.447 95.0488 536.184 95 536.008 94.9023C535.839 94.8047 535.754 94.6647 535.754 94.4824V83.3691C535.754 82.985 536.102 82.793 536.799 82.793H537.404C537.762 82.793 538.023 82.8418 538.186 82.9395C538.355 83.0371 538.439 83.1803 538.439 83.3691V94.4824C538.439 94.86 538.094 95.0488 537.404 95.0488H536.799ZM549.91 95.1465C548.725 95.1465 547.716 94.9056 546.883 94.4238C546.056 93.9421 545.424 93.2389 544.988 92.3145C544.559 91.3835 544.344 90.2507 544.344 88.916C544.344 87.5879 544.559 86.4616 544.988 85.5371C545.424 84.6061 546.056 83.903 546.883 83.4277C547.716 82.946 548.725 82.7051 549.91 82.7051C551.102 82.7051 552.111 82.946 552.938 83.4277C553.771 83.903 554.402 84.6061 554.832 85.5371C555.262 86.4616 555.477 87.5879 555.477 88.916C555.477 90.2507 555.262 91.3835 554.832 92.3145C554.402 93.2389 553.771 93.9421 552.938 94.4238C552.111 94.9056 551.102 95.1465 549.91 95.1465ZM549.91 92.8613C550.841 92.8613 551.544 92.526 552.02 91.8555C552.495 91.1784 552.732 90.1986 552.732 88.916C552.732 87.6335 552.495 86.6602 552.02 85.9961C551.544 85.332 550.841 85 549.91 85C548.986 85 548.283 85.3353 547.801 86.0059C547.326 86.6699 547.088 87.64 547.088 88.916C547.088 90.1986 547.329 91.1784 547.811 91.8555C548.292 92.526 548.992 92.8613 549.91 92.8613ZM562.504 95.0293C561.807 95.0293 561.459 94.847 561.459 94.4824V83.3691C561.459 83.1803 561.544 83.0404 561.713 82.9492C561.882 82.8516 562.146 82.8027 562.504 82.8027H563.246C563.526 82.8027 563.757 82.8353 563.939 82.9004C564.122 82.9655 564.271 83.0924 564.389 83.2812L568.49 89.5996L568.959 90.3027V83.3691C568.959 83.1803 569.044 83.0404 569.213 82.9492C569.382 82.8516 569.646 82.8027 570.004 82.8027H570.502C570.86 82.8027 571.12 82.8516 571.283 82.9492C571.452 83.0404 571.537 83.1803 571.537 83.3691V94.4824C571.537 94.847 571.192 95.0293 570.502 95.0293H569.838C569.551 95.0293 569.32 95 569.145 94.9414C568.969 94.8763 568.822 94.7526 568.705 94.5703L564.408 87.998L564.037 87.4512V94.4824C564.037 94.847 563.692 95.0293 563.002 95.0293H562.504ZM581.201 95.1465C580.381 95.1465 579.658 95.0651 579.033 94.9023C578.415 94.7331 577.939 94.528 577.607 94.2871C577.282 94.0462 577.119 93.8184 577.119 93.6035C577.119 93.4342 577.181 93.2259 577.305 92.9785C577.435 92.7311 577.588 92.5195 577.764 92.3438C577.939 92.1615 578.086 92.0703 578.203 92.0703C578.275 92.0703 578.428 92.1322 578.662 92.2559C579.014 92.4382 579.346 92.5846 579.658 92.6953C579.977 92.806 580.342 92.8613 580.752 92.8613C581.208 92.8613 581.592 92.7734 581.904 92.5977C582.223 92.4154 582.383 92.0996 582.383 91.6504C582.383 91.39 582.301 91.1654 582.139 90.9766C581.976 90.7878 581.768 90.6283 581.514 90.498C581.26 90.3678 580.915 90.2148 580.479 90.0391L579.707 89.707C579.238 89.4792 578.835 89.2285 578.496 88.9551C578.164 88.6816 577.891 88.3203 577.676 87.8711C577.467 87.4219 577.363 86.8717 577.363 86.2207C577.363 85.4264 577.559 84.7656 577.949 84.2383C578.34 83.7109 578.848 83.3236 579.473 83.0762C580.098 82.8288 580.768 82.7051 581.484 82.7051C582.07 82.7051 582.601 82.7669 583.076 82.8906C583.551 83.0078 583.923 83.1608 584.189 83.3496C584.463 83.5384 584.6 83.7272 584.6 83.916C584.6 84.0723 584.548 84.2741 584.443 84.5215C584.346 84.7624 584.222 84.974 584.072 85.1562C583.923 85.3385 583.783 85.4297 583.652 85.4297C583.594 85.4297 583.49 85.3971 583.34 85.332C583.099 85.2344 582.855 85.1562 582.607 85.0977C582.367 85.0326 582.07 85 581.719 85C581.113 85 580.693 85.0977 580.459 85.293C580.225 85.4818 580.107 85.7064 580.107 85.9668C580.107 86.2663 580.186 86.5169 580.342 86.7188C580.505 86.9206 580.706 87.0866 580.947 87.2168C581.195 87.347 581.536 87.4967 581.973 87.666C582.63 87.946 583.167 88.2129 583.584 88.4668C584.001 88.7142 584.359 89.0723 584.658 89.541C584.964 90.0098 585.117 90.6087 585.117 91.3379C585.117 92.2298 584.928 92.9622 584.551 93.5352C584.18 94.1016 583.698 94.5117 583.105 94.7656C582.52 95.0195 581.885 95.1465 581.201 95.1465Z" fill="#E3E2DF"/>
<path d="M582 29V65H612L582 29Z" fill="#1F0510"/>
<path d="M615 24H577L615 68V63V24Z" fill="#9A1750"/>
<circle cx="536.5" cy="70.5" r="5.5" fill="#E3E2DF"/>
<path d="M552 247H761V335H552V247Z" fill="#7B1240"/>
<path d="M552 291V335H589L552 291Z" fill="#9A1750"/>
<path d="M610.463 298.146C609.643 298.146 608.92 298.065 608.295 297.902C607.676 297.733 607.201 297.528 606.869 297.287C606.544 297.046 606.381 296.818 606.381 296.604C606.381 296.434 606.443 296.226 606.566 295.979C606.697 295.731 606.85 295.52 607.025 295.344C607.201 295.161 607.348 295.07 607.465 295.07C607.536 295.07 607.689 295.132 607.924 295.256C608.275 295.438 608.607 295.585 608.92 295.695C609.239 295.806 609.604 295.861 610.014 295.861C610.469 295.861 610.854 295.773 611.166 295.598C611.485 295.415 611.645 295.1 611.645 294.65C611.645 294.39 611.563 294.165 611.4 293.977C611.238 293.788 611.029 293.628 610.775 293.498C610.521 293.368 610.176 293.215 609.74 293.039L608.969 292.707C608.5 292.479 608.096 292.229 607.758 291.955C607.426 291.682 607.152 291.32 606.938 290.871C606.729 290.422 606.625 289.872 606.625 289.221C606.625 288.426 606.82 287.766 607.211 287.238C607.602 286.711 608.109 286.324 608.734 286.076C609.359 285.829 610.03 285.705 610.746 285.705C611.332 285.705 611.863 285.767 612.338 285.891C612.813 286.008 613.184 286.161 613.451 286.35C613.725 286.538 613.861 286.727 613.861 286.916C613.861 287.072 613.809 287.274 613.705 287.521C613.607 287.762 613.484 287.974 613.334 288.156C613.184 288.339 613.044 288.43 612.914 288.43C612.855 288.43 612.751 288.397 612.602 288.332C612.361 288.234 612.117 288.156 611.869 288.098C611.628 288.033 611.332 288 610.98 288C610.375 288 609.955 288.098 609.721 288.293C609.486 288.482 609.369 288.706 609.369 288.967C609.369 289.266 609.447 289.517 609.604 289.719C609.766 289.921 609.968 290.087 610.209 290.217C610.456 290.347 610.798 290.497 611.234 290.666C611.892 290.946 612.429 291.213 612.846 291.467C613.262 291.714 613.62 292.072 613.92 292.541C614.226 293.01 614.379 293.609 614.379 294.338C614.379 295.23 614.19 295.962 613.812 296.535C613.441 297.102 612.96 297.512 612.367 297.766C611.781 298.02 611.146 298.146 610.463 298.146ZM620.83 298.049C620.479 298.049 620.215 298 620.039 297.902C619.87 297.805 619.785 297.665 619.785 297.482V286.369C619.785 285.985 620.133 285.793 620.83 285.793H621.436C621.794 285.793 622.054 285.842 622.217 285.939C622.386 286.037 622.471 286.18 622.471 286.369V297.482C622.471 297.86 622.126 298.049 621.436 298.049H620.83ZM629.488 298C629.247 298 629.072 297.945 628.961 297.834C628.85 297.723 628.795 297.548 628.795 297.307V286.535C628.795 286.294 628.85 286.122 628.961 286.018C629.072 285.907 629.247 285.852 629.488 285.852H632.926C634.332 285.852 635.367 286.125 636.031 286.672C636.695 287.212 637.027 287.961 637.027 288.918C637.027 289.491 636.848 290.018 636.49 290.5C636.132 290.982 635.683 291.333 635.143 291.555L635.162 291.623C635.618 291.714 636.021 291.9 636.373 292.18C636.731 292.46 637.008 292.801 637.203 293.205C637.405 293.609 637.506 294.032 637.506 294.475C637.506 295.614 637.145 296.486 636.422 297.092C635.699 297.697 634.615 298 633.17 298H629.488ZM632.662 290.686C633.17 290.686 633.564 290.565 633.844 290.324C634.13 290.077 634.273 289.764 634.273 289.387C634.273 288.527 633.746 288.098 632.691 288.098H631.471V290.686H632.662ZM633.17 295.725C633.671 295.725 634.062 295.604 634.342 295.363C634.622 295.116 634.762 294.768 634.762 294.318C634.762 293.876 634.599 293.54 634.273 293.312C633.954 293.085 633.492 292.971 632.887 292.971H631.471V295.725H633.17ZM648.068 298.146C647.014 298.146 646.109 297.98 645.354 297.648C644.605 297.316 644.032 296.838 643.635 296.213C643.238 295.581 643.039 294.823 643.039 293.938V286.369C643.039 286.18 643.124 286.04 643.293 285.949C643.462 285.852 643.726 285.803 644.084 285.803H644.67C645.028 285.803 645.288 285.852 645.451 285.949C645.62 286.04 645.705 286.18 645.705 286.369V293.762C645.705 294.165 645.803 294.527 645.998 294.846C646.2 295.165 646.48 295.415 646.838 295.598C647.196 295.773 647.606 295.861 648.068 295.861C648.531 295.861 648.941 295.773 649.299 295.598C649.663 295.415 649.947 295.165 650.148 294.846C650.35 294.527 650.451 294.165 650.451 293.762V286.369C650.451 286.18 650.533 286.04 650.695 285.949C650.865 285.852 651.128 285.803 651.486 285.803H652.062C652.421 285.803 652.681 285.852 652.844 285.949C653.013 286.04 653.098 286.18 653.098 286.369V293.938C653.098 294.823 652.899 295.581 652.502 296.213C652.105 296.838 651.529 297.316 650.773 297.648C650.025 297.98 649.123 298.146 648.068 298.146ZM662.713 298.146C661.893 298.146 661.17 298.065 660.545 297.902C659.926 297.733 659.451 297.528 659.119 297.287C658.794 297.046 658.631 296.818 658.631 296.604C658.631 296.434 658.693 296.226 658.816 295.979C658.947 295.731 659.1 295.52 659.275 295.344C659.451 295.161 659.598 295.07 659.715 295.07C659.786 295.07 659.939 295.132 660.174 295.256C660.525 295.438 660.857 295.585 661.17 295.695C661.489 295.806 661.854 295.861 662.264 295.861C662.719 295.861 663.104 295.773 663.416 295.598C663.735 295.415 663.895 295.1 663.895 294.65C663.895 294.39 663.813 294.165 663.65 293.977C663.488 293.788 663.279 293.628 663.025 293.498C662.771 293.368 662.426 293.215 661.99 293.039L661.219 292.707C660.75 292.479 660.346 292.229 660.008 291.955C659.676 291.682 659.402 291.32 659.188 290.871C658.979 290.422 658.875 289.872 658.875 289.221C658.875 288.426 659.07 287.766 659.461 287.238C659.852 286.711 660.359 286.324 660.984 286.076C661.609 285.829 662.28 285.705 662.996 285.705C663.582 285.705 664.113 285.767 664.588 285.891C665.063 286.008 665.434 286.161 665.701 286.35C665.975 286.538 666.111 286.727 666.111 286.916C666.111 287.072 666.059 287.274 665.955 287.521C665.857 287.762 665.734 287.974 665.584 288.156C665.434 288.339 665.294 288.43 665.164 288.43C665.105 288.43 665.001 288.397 664.852 288.332C664.611 288.234 664.367 288.156 664.119 288.098C663.878 288.033 663.582 288 663.23 288C662.625 288 662.205 288.098 661.971 288.293C661.736 288.482 661.619 288.706 661.619 288.967C661.619 289.266 661.697 289.517 661.854 289.719C662.016 289.921 662.218 290.087 662.459 290.217C662.706 290.347 663.048 290.497 663.484 290.666C664.142 290.946 664.679 291.213 665.096 291.467C665.512 291.714 665.87 292.072 666.17 292.541C666.476 293.01 666.629 293.609 666.629 294.338C666.629 295.23 666.44 295.962 666.062 296.535C665.691 297.102 665.21 297.512 664.617 297.766C664.031 298.02 663.396 298.146 662.713 298.146ZM683.584 298.029C682.887 298.029 682.539 297.847 682.539 297.482V288.117H679.785C679.603 288.117 679.469 288.049 679.385 287.912C679.307 287.775 679.268 287.554 679.268 287.248V286.721C679.268 286.415 679.307 286.193 679.385 286.057C679.469 285.92 679.603 285.852 679.785 285.852H687.998C688.18 285.852 688.311 285.92 688.389 286.057C688.473 286.193 688.516 286.415 688.516 286.721V287.248C688.516 287.554 688.473 287.775 688.389 287.912C688.311 288.049 688.18 288.117 687.998 288.117H685.234V297.482C685.234 297.847 684.886 298.029 684.189 298.029H683.584ZM694.547 298C694.306 298 694.13 297.945 694.02 297.834C693.909 297.723 693.854 297.548 693.854 297.307V286.535C693.854 286.294 693.909 286.122 694.02 286.018C694.13 285.907 694.306 285.852 694.547 285.852H700.904C701.087 285.852 701.217 285.92 701.295 286.057C701.38 286.193 701.422 286.415 701.422 286.721V287.248C701.422 287.554 701.38 287.775 701.295 287.912C701.217 288.049 701.087 288.117 700.904 288.117H696.529V290.637H700.436C700.618 290.637 700.748 290.705 700.826 290.842C700.911 290.979 700.953 291.2 700.953 291.506V292.043C700.953 292.349 700.911 292.57 700.826 292.707C700.748 292.844 700.618 292.912 700.436 292.912H696.529V295.725H700.914C701.096 295.725 701.227 295.793 701.305 295.93C701.389 296.066 701.432 296.285 701.432 296.584V297.131C701.432 297.437 701.389 297.658 701.305 297.795C701.227 297.932 701.096 298 700.914 298H694.547ZM712.639 298.146C710.686 298.146 709.243 297.639 708.312 296.623C707.388 295.607 706.926 294.029 706.926 291.887C706.926 287.766 708.859 285.705 712.727 285.705C713.254 285.705 713.801 285.757 714.367 285.861C714.934 285.965 715.406 286.112 715.783 286.301C716.167 286.483 716.359 286.688 716.359 286.916C716.359 287.079 716.294 287.294 716.164 287.561C716.034 287.821 715.878 288.052 715.695 288.254C715.52 288.456 715.363 288.557 715.227 288.557C715.194 288.557 715.106 288.524 714.963 288.459C714.65 288.329 714.322 288.221 713.977 288.137C713.638 288.046 713.205 288 712.678 288C711.656 288 710.897 288.326 710.402 288.977C709.914 289.621 709.67 290.598 709.67 291.906C709.67 293.215 709.917 294.201 710.412 294.865C710.907 295.529 711.649 295.861 712.639 295.861C713.153 295.861 713.599 295.809 713.977 295.705C714.361 295.601 714.735 295.467 715.1 295.305C715.119 295.298 715.178 295.275 715.275 295.236C715.373 295.191 715.445 295.168 715.49 295.168C715.66 295.168 715.822 295.269 715.979 295.471C716.135 295.666 716.262 295.891 716.359 296.145C716.457 296.392 716.506 296.571 716.506 296.682C716.506 297.001 716.291 297.271 715.861 297.492C715.438 297.714 714.924 297.88 714.318 297.99C713.719 298.094 713.16 298.146 712.639 298.146ZM723.406 298.029C722.716 298.029 722.371 297.847 722.371 297.482V286.369C722.371 286.18 722.452 286.04 722.615 285.949C722.785 285.852 723.048 285.803 723.406 285.803H724.021C724.38 285.803 724.64 285.852 724.803 285.949C724.972 286.04 725.057 286.18 725.057 286.369V290.656H729.744V286.369C729.744 286.18 729.829 286.04 729.998 285.949C730.167 285.852 730.431 285.803 730.789 285.803H731.395C732.091 285.803 732.439 285.992 732.439 286.369V297.482C732.439 297.847 732.091 298.029 731.395 298.029H730.789C730.092 298.029 729.744 297.847 729.744 297.482V292.951H725.057V297.482C725.057 297.847 724.712 298.029 724.021 298.029H723.406Z" fill="#E3E2DF"/>
<path d="M403.576 363V362.664C404.152 362.664 404.488 362.557 404.584 362.344V354.296C404.488 354.083 404.152 353.976 403.576 353.976V353.64H407.512C408.835 353.64 409.837 353.88 410.52 354.36C411.203 354.84 411.544 355.389 411.544 356.008C411.544 356.595 411.368 357.112 411.016 357.56C410.664 357.997 410.141 358.317 409.448 358.52L411.576 362.328C411.683 362.552 412.035 362.664 412.632 362.664V363H411.944C411.101 363 410.477 362.952 410.072 362.856C409.677 362.76 409.379 362.531 409.176 362.168L407.24 358.744H406.616V362.344C406.712 362.557 407.048 362.664 407.624 362.664V363H403.576ZM406.616 354.184V358.2H407.144C407.869 358.2 408.424 358.04 408.808 357.72C409.192 357.389 409.384 356.824 409.384 356.024C409.384 355.405 409.165 354.947 408.728 354.648C408.301 354.339 407.709 354.184 406.952 354.184H406.616ZM414.598 363V362.664C415.174 362.664 415.51 362.557 415.606 362.344V354.296C415.51 354.083 415.174 353.976 414.598 353.976V353.64H418.646V353.976C418.07 353.976 417.734 354.083 417.638 354.296V362.344C417.734 362.557 418.07 362.664 418.646 362.664V363H414.598ZM426.3 354.024C425.404 354.024 424.711 354.392 424.22 355.128C423.74 355.864 423.5 356.856 423.5 358.104C423.5 359.555 423.761 360.669 424.284 361.448C424.807 362.227 425.5 362.616 426.364 362.616C426.887 362.616 427.361 362.44 427.788 362.088C428.225 361.725 428.524 361.325 428.684 360.888L429.34 361.08C429.095 361.667 428.705 362.163 428.172 362.568C427.649 362.963 426.94 363.16 426.044 363.16C424.615 363.16 423.463 362.696 422.588 361.768C421.713 360.84 421.276 359.736 421.276 358.456C421.276 356.973 421.777 355.773 422.78 354.856C423.783 353.939 424.951 353.48 426.284 353.48C426.593 353.48 426.977 353.56 427.436 353.72C427.895 353.88 428.156 353.96 428.22 353.96C428.348 353.96 428.412 353.853 428.412 353.64H428.78L428.908 355.896H428.556C428.492 355.459 428.215 355.037 427.724 354.632C427.233 354.227 426.759 354.024 426.3 354.024ZM433.142 361.736C432.225 360.776 431.766 359.64 431.766 358.328C431.766 357.016 432.23 355.88 433.158 354.92C434.086 353.96 435.206 353.48 436.518 353.48C437.83 353.48 438.95 353.96 439.878 354.92C440.806 355.88 441.27 357.016 441.27 358.328C441.27 359.213 441.041 360.035 440.582 360.792C440.134 361.539 439.537 362.125 438.79 362.552C438.812 362.605 438.854 362.712 438.918 362.872C438.982 363.032 439.025 363.139 439.046 363.192C439.078 363.256 439.121 363.347 439.174 363.464C439.228 363.581 439.276 363.661 439.318 363.704C439.372 363.757 439.43 363.816 439.494 363.88C439.558 363.955 439.628 364.003 439.702 364.024C439.777 364.045 439.862 364.056 439.958 364.056C440.214 364.056 440.449 363.992 440.662 363.864C440.876 363.747 441.025 363.629 441.11 363.512L441.238 363.32L441.478 363.496C441.468 363.528 441.446 363.565 441.414 363.608C441.393 363.661 441.334 363.752 441.238 363.88C441.153 364.019 441.057 364.136 440.95 364.232C440.844 364.339 440.7 364.429 440.518 364.504C440.337 364.589 440.15 364.632 439.958 364.632C439.244 364.632 438.694 364.493 438.31 364.216C437.926 363.939 437.612 363.56 437.366 363.08C437.068 363.133 436.785 363.16 436.518 363.16C435.196 363.16 434.07 362.685 433.142 361.736ZM437.126 362.552C437.03 362.328 436.956 362.173 436.902 362.088C436.86 361.992 436.79 361.875 436.694 361.736C436.598 361.597 436.492 361.501 436.374 361.448C436.268 361.395 436.14 361.368 435.99 361.368C435.564 361.368 435.18 361.48 434.838 361.704C435.286 362.312 435.868 362.616 436.582 362.616C436.806 362.616 436.988 362.595 437.126 362.552ZM438.326 361.688C438.849 360.941 439.11 359.864 439.11 358.456C439.11 357.741 439.03 357.064 438.87 356.424C438.71 355.784 438.422 355.224 438.006 354.744C437.59 354.264 437.073 354.024 436.454 354.024C435.974 354.024 435.564 354.152 435.222 354.408C434.881 354.664 434.62 355.005 434.438 355.432C434.257 355.859 434.124 356.301 434.038 356.76C433.964 357.208 433.926 357.688 433.926 358.2C433.926 359.427 434.145 360.456 434.582 361.288C434.998 360.872 435.5 360.664 436.086 360.664C437.089 360.664 437.836 361.005 438.326 361.688ZM449.031 354.024C448.135 354.024 447.442 354.392 446.951 355.128C446.471 355.864 446.231 356.856 446.231 358.104C446.231 359.555 446.493 360.669 447.015 361.448C447.538 362.227 448.231 362.616 449.095 362.616C449.618 362.616 450.093 362.44 450.519 362.088C450.957 361.725 451.255 361.325 451.415 360.888L452.071 361.08C451.826 361.667 451.437 362.163 450.903 362.568C450.381 362.963 449.671 363.16 448.775 363.16C447.346 363.16 446.194 362.696 445.319 361.768C444.445 360.84 444.007 359.736 444.007 358.456C444.007 356.973 444.509 355.773 445.511 354.856C446.514 353.939 447.682 353.48 449.015 353.48C449.325 353.48 449.709 353.56 450.167 353.72C450.626 353.88 450.887 353.96 450.951 353.96C451.079 353.96 451.143 353.853 451.143 353.64H451.511L451.639 355.896H451.287C451.223 355.459 450.946 355.037 450.455 354.632C449.965 354.227 449.49 354.024 449.031 354.024ZM456.658 358.2C456.658 358.925 456.732 359.603 456.882 360.232C457.042 360.861 457.33 361.416 457.746 361.896C458.162 362.376 458.684 362.616 459.314 362.616C459.794 362.616 460.204 362.493 460.546 362.248C460.887 361.992 461.148 361.651 461.33 361.224C461.511 360.797 461.639 360.36 461.714 359.912C461.799 359.453 461.842 358.968 461.842 358.456C461.842 357.741 461.762 357.064 461.602 356.424C461.442 355.784 461.154 355.224 460.738 354.744C460.322 354.264 459.804 354.024 459.186 354.024C458.706 354.024 458.295 354.152 457.954 354.408C457.612 354.664 457.351 355.005 457.17 355.432C456.988 355.859 456.855 356.301 456.77 356.76C456.695 357.208 456.658 357.688 456.658 358.2ZM455.874 361.736C454.956 360.776 454.498 359.64 454.498 358.328C454.498 357.016 454.962 355.88 455.89 354.92C456.818 353.96 457.938 353.48 459.25 353.48C460.562 353.48 461.682 353.96 462.61 354.92C463.538 355.88 464.002 357.016 464.002 358.328C464.002 359.64 463.532 360.776 462.594 361.736C461.666 362.685 460.551 363.16 459.25 363.16C457.927 363.16 456.802 362.685 455.874 361.736ZM466.613 363.016V362.68C467.189 362.68 467.525 362.573 467.621 362.36V354.312C467.525 354.099 467.189 353.992 466.613 353.992V353.656H470.293C471.733 353.656 472.917 354.093 473.845 354.968C474.784 355.832 475.253 356.947 475.253 358.312C475.253 359.688 474.795 360.819 473.877 361.704C472.971 362.579 471.84 363.016 470.485 363.016H466.613ZM469.653 354.12V362.472H470.485C471.211 362.472 471.824 362.131 472.325 361.448C472.837 360.765 473.093 359.725 473.093 358.328C473.093 356.92 472.827 355.869 472.293 355.176C471.76 354.472 471.093 354.12 470.293 354.12H469.653ZM477.885 363V362.664C478.461 362.664 478.797 362.557 478.893 362.344V354.296C478.797 354.083 478.461 353.976 477.885 353.976V353.64H484.493V355.192H484.157C484.157 354.616 484.051 354.28 483.837 354.184H480.925V357.864H482.765C482.979 357.768 483.085 357.432 483.085 356.856H483.421V359.416H483.085C483.085 358.84 482.979 358.504 482.765 358.408H480.925V362.456H484.173C484.44 362.339 484.68 362.003 484.893 361.448H485.213L484.829 363H477.885ZM490.86 363.16C490.338 363.16 489.804 363.08 489.26 362.92C488.716 362.76 488.434 362.68 488.412 362.68C488.348 362.68 488.274 362.712 488.188 362.776C488.103 362.84 488.06 362.915 488.06 363H487.692V360.472H488.044C488.162 361.101 488.514 361.619 489.1 362.024C489.687 362.419 490.242 362.616 490.764 362.616C491.298 362.616 491.724 362.477 492.044 362.2C492.375 361.912 492.54 361.539 492.54 361.08C492.54 360.92 492.487 360.765 492.38 360.616C492.284 360.456 492.124 360.296 491.9 360.136C491.687 359.965 491.495 359.827 491.324 359.72C491.154 359.603 490.903 359.448 490.572 359.256C490.252 359.064 490.023 358.925 489.884 358.84C488.434 357.944 487.708 356.984 487.708 355.96C487.708 355.331 487.996 354.76 488.572 354.248C489.148 353.736 489.794 353.48 490.508 353.48C490.828 353.48 491.218 353.56 491.676 353.72C492.135 353.88 492.391 353.96 492.444 353.96C492.572 353.96 492.636 353.853 492.636 353.64H493.004L493.164 356.056H492.812C492.748 355.619 492.46 355.171 491.948 354.712C491.436 354.253 490.962 354.024 490.524 354.024C490.044 354.024 489.682 354.179 489.436 354.488C489.191 354.787 489.068 355.107 489.068 355.448C489.068 355.587 489.116 355.725 489.212 355.864C489.308 355.992 489.463 356.136 489.676 356.296C489.89 356.456 490.076 356.589 490.236 356.696C490.396 356.792 490.642 356.936 490.972 357.128C491.303 357.32 491.532 357.453 491.66 357.528C492.396 357.976 492.972 358.44 493.388 358.92C493.804 359.4 494.012 359.971 494.012 360.632C494.012 361.421 493.692 362.04 493.052 362.488C492.412 362.936 491.682 363.16 490.86 363.16Z" fill="white"/>
<path d="M589 295H552L589 335V330.455V295Z" fill="#1F0510"/>
<circle cx="620.5" cy="271.5" r="5.5" fill="#E3E2DF"/>
<path d="M623.139 204.049C622.787 204.049 622.523 204 622.348 203.902C622.178 203.805 622.094 203.665 622.094 203.482V192.369C622.094 191.985 622.442 191.793 623.139 191.793H623.744C624.102 191.793 624.363 191.842 624.525 191.939C624.695 192.037 624.779 192.18 624.779 192.369V203.482C624.779 203.86 624.434 204.049 623.744 204.049H623.139ZM634.785 204.029C634.505 204.029 634.284 204.003 634.121 203.951C633.958 203.893 633.857 203.798 633.818 203.668L630.068 192.506C630.016 192.35 629.99 192.245 629.99 192.193C629.99 191.933 630.345 191.803 631.055 191.803H631.621C632.201 191.803 632.542 191.975 632.646 192.32L634.99 199.83L635.186 200.436H635.254L635.449 199.83L637.852 192.32C637.969 191.975 638.314 191.803 638.887 191.803H639.414C640.111 191.803 640.459 191.933 640.459 192.193C640.459 192.311 640.439 192.415 640.4 192.506L636.65 203.668C636.611 203.798 636.507 203.893 636.338 203.951C636.175 204.003 635.957 204.029 635.684 204.029H634.785ZM646.52 204C646.279 204 646.103 203.945 645.992 203.834C645.882 203.723 645.826 203.548 645.826 203.307V192.535C645.826 192.294 645.882 192.122 645.992 192.018C646.103 191.907 646.279 191.852 646.52 191.852H652.877C653.059 191.852 653.189 191.92 653.268 192.057C653.352 192.193 653.395 192.415 653.395 192.721V193.248C653.395 193.554 653.352 193.775 653.268 193.912C653.189 194.049 653.059 194.117 652.877 194.117H648.502V196.637H652.408C652.59 196.637 652.721 196.705 652.799 196.842C652.883 196.979 652.926 197.2 652.926 197.506V198.043C652.926 198.349 652.883 198.57 652.799 198.707C652.721 198.844 652.59 198.912 652.408 198.912H648.502V201.725H652.887C653.069 201.725 653.199 201.793 653.277 201.93C653.362 202.066 653.404 202.285 653.404 202.584V203.131C653.404 203.437 653.362 203.658 653.277 203.795C653.199 203.932 653.069 204 652.887 204H646.52Z" fill="#9A1750"/>
<path d="M606.246 204.029C605.549 204.029 605.201 203.847 605.201 203.482V192.535C605.201 192.294 605.257 192.122 605.367 192.018C605.478 191.907 605.654 191.852 605.895 191.852H609.283C612.161 191.852 613.6 192.936 613.6 195.104C613.6 195.761 613.414 196.327 613.043 196.803C612.678 197.278 612.187 197.633 611.568 197.867V197.936C611.783 198.027 612.008 198.222 612.242 198.521C612.483 198.821 612.675 199.16 612.818 199.537L614.352 203.355C614.404 203.512 614.43 203.622 614.43 203.688C614.43 203.915 614.085 204.029 613.395 204.029H612.682C612.102 204.029 611.767 203.909 611.676 203.668L610.299 200.279C610.169 200.019 610.042 199.817 609.918 199.674C609.801 199.531 609.635 199.423 609.42 199.352C609.205 199.273 608.915 199.234 608.551 199.234H607.877V203.482C607.877 203.847 607.529 204.029 606.832 204.029H606.246ZM609.518 196.93C609.752 196.93 609.973 196.865 610.182 196.734C610.39 196.598 610.556 196.415 610.68 196.188C610.803 195.96 610.865 195.709 610.865 195.436C610.865 195.032 610.732 194.713 610.465 194.479C610.204 194.238 609.85 194.117 609.4 194.117H607.877V196.93H609.518Z" fill="#FAF0E6"/>
<path d="M510.246 204.029C509.549 204.029 509.201 203.847 509.201 203.482V192.369C509.201 192.18 509.286 192.04 509.455 191.949C509.624 191.852 509.888 191.803 510.246 191.803H511.164C511.717 191.803 512.079 191.962 512.248 192.281L515.168 197.467L515.314 197.721L515.461 197.418L518.4 192.281C518.576 191.962 518.941 191.803 519.494 191.803H520.402C521.099 191.803 521.447 191.992 521.447 192.369V203.482C521.447 203.847 521.099 204.029 520.402 204.029H519.895C519.198 204.029 518.85 203.847 518.85 203.482V196.285L518.781 196.266L516.262 200.768C516.112 200.989 515.881 201.1 515.568 201.1H515.07C514.908 201.1 514.771 201.074 514.66 201.021C514.549 200.963 514.455 200.878 514.377 200.768L511.848 196.266L511.779 196.285V203.482C511.779 203.847 511.434 204.029 510.744 204.029H510.246ZM527.693 204.029C526.984 204.029 526.629 203.902 526.629 203.648C526.629 203.577 526.652 203.473 526.697 203.336L530.525 192.174C530.617 191.926 530.945 191.803 531.512 191.803H532.41C532.977 191.803 533.305 191.926 533.396 192.174L537.225 203.336C537.257 203.466 537.273 203.57 537.273 203.648C537.273 203.779 537.202 203.876 537.059 203.941C536.922 204 536.704 204.029 536.404 204.029H535.643C535.369 204.029 535.148 204.003 534.979 203.951C534.816 203.893 534.715 203.798 534.676 203.668L533.973 201.549H529.881L529.178 203.668C529.106 203.909 528.839 204.029 528.377 204.029H527.693ZM533.23 199.254L532.244 196.168C532.186 196.012 532.133 195.833 532.088 195.631C532.049 195.429 532.013 195.237 531.98 195.055H531.912L531.873 195.27C531.808 195.654 531.733 195.953 531.648 196.168L530.623 199.254H533.23ZM543.52 204.029C542.823 204.029 542.475 203.847 542.475 203.482V192.369C542.475 192.18 542.559 192.04 542.729 191.949C542.898 191.852 543.161 191.803 543.52 191.803H544.262C544.542 191.803 544.773 191.835 544.955 191.9C545.137 191.965 545.287 192.092 545.404 192.281L549.506 198.6L549.975 199.303V192.369C549.975 192.18 550.059 192.04 550.229 191.949C550.398 191.852 550.661 191.803 551.02 191.803H551.518C551.876 191.803 552.136 191.852 552.299 191.949C552.468 192.04 552.553 192.18 552.553 192.369V203.482C552.553 203.847 552.208 204.029 551.518 204.029H550.854C550.567 204.029 550.336 204 550.16 203.941C549.984 203.876 549.838 203.753 549.721 203.57L545.424 196.998L545.053 196.451V203.482C545.053 203.847 544.708 204.029 544.018 204.029H543.52ZM562.217 204.146C561.396 204.146 560.674 204.065 560.049 203.902C559.43 203.733 558.955 203.528 558.623 203.287C558.298 203.046 558.135 202.818 558.135 202.604C558.135 202.434 558.197 202.226 558.32 201.979C558.451 201.731 558.604 201.52 558.779 201.344C558.955 201.161 559.102 201.07 559.219 201.07C559.29 201.07 559.443 201.132 559.678 201.256C560.029 201.438 560.361 201.585 560.674 201.695C560.993 201.806 561.357 201.861 561.768 201.861C562.223 201.861 562.607 201.773 562.92 201.598C563.239 201.415 563.398 201.1 563.398 200.65C563.398 200.39 563.317 200.165 563.154 199.977C562.992 199.788 562.783 199.628 562.529 199.498C562.275 199.368 561.93 199.215 561.494 199.039L560.723 198.707C560.254 198.479 559.85 198.229 559.512 197.955C559.18 197.682 558.906 197.32 558.691 196.871C558.483 196.422 558.379 195.872 558.379 195.221C558.379 194.426 558.574 193.766 558.965 193.238C559.355 192.711 559.863 192.324 560.488 192.076C561.113 191.829 561.784 191.705 562.5 191.705C563.086 191.705 563.617 191.767 564.092 191.891C564.567 192.008 564.938 192.161 565.205 192.35C565.479 192.538 565.615 192.727 565.615 192.916C565.615 193.072 565.563 193.274 565.459 193.521C565.361 193.762 565.238 193.974 565.088 194.156C564.938 194.339 564.798 194.43 564.668 194.43C564.609 194.43 564.505 194.397 564.355 194.332C564.115 194.234 563.87 194.156 563.623 194.098C563.382 194.033 563.086 194 562.734 194C562.129 194 561.709 194.098 561.475 194.293C561.24 194.482 561.123 194.706 561.123 194.967C561.123 195.266 561.201 195.517 561.357 195.719C561.52 195.921 561.722 196.087 561.963 196.217C562.21 196.347 562.552 196.497 562.988 196.666C563.646 196.946 564.183 197.213 564.6 197.467C565.016 197.714 565.374 198.072 565.674 198.541C565.98 199.01 566.133 199.609 566.133 200.338C566.133 201.23 565.944 201.962 565.566 202.535C565.195 203.102 564.714 203.512 564.121 203.766C563.535 204.02 562.9 204.146 562.217 204.146ZM576.793 204.146C575.608 204.146 574.599 203.906 573.766 203.424C572.939 202.942 572.307 202.239 571.871 201.314C571.441 200.383 571.227 199.251 571.227 197.916C571.227 196.588 571.441 195.462 571.871 194.537C572.307 193.606 572.939 192.903 573.766 192.428C574.599 191.946 575.608 191.705 576.793 191.705C577.984 191.705 578.993 191.946 579.82 192.428C580.654 192.903 581.285 193.606 581.715 194.537C582.145 195.462 582.359 196.588 582.359 197.916C582.359 199.251 582.145 200.383 581.715 201.314C581.285 202.239 580.654 202.942 579.82 203.424C578.993 203.906 577.984 204.146 576.793 204.146ZM576.793 201.861C577.724 201.861 578.427 201.526 578.902 200.855C579.378 200.178 579.615 199.199 579.615 197.916C579.615 196.633 579.378 195.66 578.902 194.996C578.427 194.332 577.724 194 576.793 194C575.868 194 575.165 194.335 574.684 195.006C574.208 195.67 573.971 196.64 573.971 197.916C573.971 199.199 574.212 200.178 574.693 200.855C575.175 201.526 575.875 201.861 576.793 201.861ZM589.387 204.029C588.69 204.029 588.342 203.847 588.342 203.482V192.369C588.342 192.18 588.426 192.04 588.596 191.949C588.765 191.852 589.029 191.803 589.387 191.803H590.129C590.409 191.803 590.64 191.835 590.822 191.9C591.005 191.965 591.154 192.092 591.271 192.281L595.373 198.6L595.842 199.303V192.369C595.842 192.18 595.926 192.04 596.096 191.949C596.265 191.852 596.529 191.803 596.887 191.803H597.385C597.743 191.803 598.003 191.852 598.166 191.949C598.335 192.04 598.42 192.18 598.42 192.369V203.482C598.42 203.847 598.075 204.029 597.385 204.029H596.721C596.434 204.029 596.203 204 596.027 203.941C595.852 203.876 595.705 203.753 595.588 203.57L591.291 196.998L590.92 196.451V203.482C590.92 203.847 590.575 204.029 589.885 204.029H589.387Z" fill="#E3E2DF"/>
<path d="M312 51H274L312 95V90V51Z" fill="#9A1750"/>
<defs>
<filter id="filter0_d_10_157" x="236.637" y="164.656" width="16.9711" height="17.4065" filterUnits="userSpaceOnUse" color-interpolation-filters="sRGB">
<feFlood flood-opacity="0" result="BackgroundImageFix"/>
<feColorMatrix in="SourceAlpha" type="matrix" values="0 0 0 0 0 0 0 0 0 0 0 0 0 0 0 0 0 0 127 0" result="hardAlpha"/>
<feOffset dy="4"/>
<feGaussianBlur stdDeviation="2"/>
<feComposite in2="hardAlpha" operator="out"/>
<feColorMatrix type="matrix" values="0 0 0 0 0 0 0 0 0 0 0 0 0 0 0 0 0 0 0.25 0"/>
<feBlend mode="normal" in2="BackgroundImageFix" result="effect1_dropShadow_10_157"/>
<feBlend mode="normal" in="SourceGraphic" in2="effect1_dropShadow_10_157" result="shape"/>
</filter>
<filter id="filter1_d_10_157" x="236.656" y="164.637" width="17.4065" height="16.971" filterUnits="userSpaceOnUse" color-interpolation-filters="sRGB">
<feFlood flood-opacity="0" result="BackgroundImageFix"/>
<feColorMatrix in="SourceAlpha" type="matrix" values="0 0 0 0 0 0 0 0 0 0 0 0 0 0 0 0 0 0 127 0" result="hardAlpha"/>
<feOffset dy="4"/>
<feGaussianBlur stdDeviation="2"/>
<feComposite in2="hardAlpha" operator="out"/>
<feColorMatrix type="matrix" values="0 0 0 0 0 0 0 0 0 0 0 0 0 0 0 0 0 0 0.25 0"/>
<feBlend mode="normal" in2="BackgroundImageFix" result="effect1_dropShadow_10_157"/>
<feBlend mode="normal" in="SourceGraphic" in2="effect1_dropShadow_10_157" result="shape"/>
</filter>
</defs>
</svg>
